<?xml version="1.0" encoding="UTF-8"?>
<svg xmlns="http://www.w3.org/2000/svg" xmlns:xlink="http://www.w3.org/1999/xlink" width="30px" height="30px" viewBox="0 0 30 30" version="1.1">
<g id="surface1">
<path style=" stroke:none;fill-rule:nonzero;fill:rgb(27.450982%,27.450982%,27.450982%);fill-opacity:1;" d="M 25.261719 19.148438 C 24.535156 20.882812 23.359375 22.394531 21.859375 23.527344 C 20.363281 24.664062 18.589844 25.382812 16.726562 25.613281 C 14.859375 25.847656 12.964844 25.585938 11.234375 24.851562 C 9.5 24.117188 7.992188 22.941406 6.859375 21.441406 C 5.730469 19.941406 5.011719 18.167969 4.78125 16.304688 C 4.550781 14.4375 4.820312 12.542969 5.554688 10.8125 C 6.289062 9.082031 7.46875 7.574219 8.96875 6.445312 C 10.472656 5.316406 12.246094 4.601562 14.113281 4.375 C 14.242188 4.359375 14.375 4.386719 14.488281 4.449219 C 14.601562 4.511719 14.695312 4.609375 14.75 4.726562 C 14.808594 4.839844 14.832031 4.972656 14.8125 5.097656 C 14.789062 5.226562 14.730469 5.347656 14.636719 5.4375 C 13.871094 6.199219 13.265625 7.105469 12.855469 8.101562 C 12.445312 9.101562 12.238281 10.171875 12.25 11.25 C 12.261719 12.667969 12.640625 14.058594 13.347656 15.289062 C 14.058594 16.519531 15.074219 17.542969 16.292969 18.261719 C 17.515625 18.980469 18.90625 19.375 20.324219 19.398438 C 21.742188 19.421875 23.140625 19.078125 24.386719 18.398438 C 24.503906 18.339844 24.636719 18.316406 24.765625 18.332031 C 24.894531 18.347656 25.015625 18.402344 25.113281 18.488281 C 25.195312 18.574219 25.253906 18.679688 25.28125 18.796875 C 25.308594 18.914062 25.300781 19.035156 25.261719 19.148438 Z M 25.261719 19.148438 "/>
</g>
</svg>
