<svg width="30" height="30" viewBox="0 0 30 30" fill="none" xmlns="http://www.w3.org/2000/svg">
<path d="M15 21.25C18.4518 21.25 21.25 18.4518 21.25 15C21.25 11.5482 18.4518 8.75 15 8.75C11.5482 8.75 8.75 11.5482 8.75 15C8.75 18.4518 11.5482 21.25 15 21.25Z" fill="#E58411"/>
<path d="M26.25 16.25H25C24.6685 16.25 24.3505 16.1183 24.1161 15.8839C23.8817 15.6495 23.75 15.3315 23.75 15C23.75 14.6685 23.8817 14.3505 24.1161 14.1161C24.3505 13.8817 24.6685 13.75 25 13.75H26.25C26.5815 13.75 26.8995 13.8817 27.1339 14.1161C27.3683 14.3505 27.5 14.6685 27.5 15C27.5 15.3315 27.3683 15.6495 27.1339 15.8839C26.8995 16.1183 26.5815 16.25 26.25 16.25Z" fill="#E58411"/>
<path d="M5 16.25H3.75C3.41848 16.25 3.10054 16.1183 2.86612 15.8839C2.6317 15.6495 2.5 15.3315 2.5 15C2.5 14.6685 2.6317 14.3505 2.86612 14.1161C3.10054 13.8817 3.41848 13.75 3.75 13.75H5C5.33152 13.75 5.64946 13.8817 5.88388 14.1161C6.1183 14.3505 6.25 14.6685 6.25 15C6.25 15.3315 6.1183 15.6495 5.88388 15.8839C5.64946 16.1183 5.33152 16.25 5 16.25Z" fill="#E58411"/>
<path d="M22.0752 9.17499C21.7647 9.16093 21.4706 9.03169 21.2502 8.81249C21.0174 8.57828 20.8867 8.26147 20.8867 7.93123C20.8867 7.601 21.0174 7.28419 21.2502 7.04998L22.1377 6.16248C22.2498 6.03163 22.3877 5.92536 22.5427 5.85033C22.6978 5.7753 22.8667 5.73314 23.0389 5.72649C23.211 5.71984 23.3827 5.74884 23.5431 5.81169C23.7035 5.87453 23.8492 5.96985 23.971 6.09167C24.0928 6.21349 24.1882 6.35918 24.251 6.51958C24.3138 6.67999 24.3429 6.85165 24.3362 7.0238C24.3296 7.19595 24.2874 7.36487 24.2124 7.51995C24.1373 7.67503 24.0311 7.81293 23.9002 7.92499L23.0127 8.81249C22.89 8.9345 22.7434 9.02972 22.582 9.09212C22.4206 9.15452 22.2481 9.18273 22.0752 9.17499Z" fill="#E58411"/>
<path d="M7.04982 24.2C6.88531 24.201 6.72223 24.1694 6.56994 24.1072C6.41764 24.045 6.27912 23.9534 6.16232 23.8375C5.92951 23.6033 5.79883 23.2865 5.79883 22.9563C5.79883 22.626 5.92951 22.3092 6.16232 22.075L7.04982 21.25C7.28895 21.0452 7.59654 20.9382 7.91114 20.9504C8.22573 20.9625 8.52415 21.0929 8.74677 21.3156C8.96939 21.5382 9.09981 21.8366 9.11196 22.1512C9.12411 22.4658 9.0171 22.7734 8.81232 23.0125L7.92482 23.9C7.68224 24.1082 7.36912 24.2156 7.04982 24.2Z" fill="#E58411"/>
<path d="M15 6.25C14.6685 6.25 14.3505 6.1183 14.1161 5.88388C13.8817 5.64946 13.75 5.33152 13.75 5V3.75C13.75 3.41848 13.8817 3.10054 14.1161 2.86612C14.3505 2.6317 14.6685 2.5 15 2.5C15.3315 2.5 15.6495 2.6317 15.8839 2.86612C16.1183 3.10054 16.25 3.41848 16.25 3.75V5C16.25 5.33152 16.1183 5.64946 15.8839 5.88388C15.6495 6.1183 15.3315 6.25 15 6.25Z" fill="#E58411"/>
<path d="M15 27.5C14.6685 27.5 14.3505 27.3683 14.1161 27.1339C13.8817 26.8995 13.75 26.5815 13.75 26.25V25C13.75 24.6685 13.8817 24.3505 14.1161 24.1161C14.3505 23.8817 14.6685 23.75 15 23.75C15.3315 23.75 15.6495 23.8817 15.8839 24.1161C16.1183 24.3505 16.25 24.6685 16.25 25V26.25C16.25 26.5815 16.1183 26.8995 15.8839 27.1339C15.6495 27.3683 15.3315 27.5 15 27.5Z" fill="#E58411"/>
<path d="M7.9244 9.17501C7.59648 9.17363 7.28223 9.04344 7.0494 8.81251L6.1619 7.92501C5.95712 7.68588 5.85011 7.37829 5.86226 7.06369C5.87441 6.7491 6.00483 6.45067 6.22745 6.22806C6.45006 6.00544 6.74849 5.87502 7.06308 5.86287C7.37768 5.85072 7.68527 5.95773 7.9244 6.16251L8.8119 7.05001C9.04471 7.28421 9.17539 7.60103 9.17539 7.93126C9.17539 8.26149 9.04471 8.57831 8.8119 8.81251C8.6951 8.92836 8.55658 9.02002 8.40428 9.08222C8.25199 9.14443 8.08891 9.17596 7.9244 9.17501Z" fill="#E58411"/>
<path d="M22.9494 24.2C22.6215 24.1986 22.3072 24.0684 22.0744 23.8375L21.2494 22.95C21.1173 22.7125 21.0662 22.4385 21.1038 22.1693C21.1415 21.9002 21.2658 21.6506 21.4579 21.4585C21.6501 21.2663 21.8996 21.142 22.1687 21.1044C22.4379 21.0668 22.7119 21.1179 22.9494 21.25L23.8369 22.1375C24.0697 22.3717 24.2004 22.6885 24.2004 23.0187C24.2004 23.349 24.0697 23.6658 23.8369 23.9C23.5912 24.1113 23.273 24.2188 22.9494 24.2Z" fill="#E58411"/>
</svg>
